<svg width="287" height="287" viewBox="0 0 287 287" fill="none" xmlns="http://www.w3.org/2000/svg">
<path d="M57 143.5C57 116.183 67.8518 89.9842 87.168 70.668C106.484 51.3518 132.683 40.5 160 40.5L160 143.5L57 143.5Z" fill="#003995"/>
<path d="M160 246.5C132.683 246.5 106.484 235.648 87.168 216.332C67.8518 197.016 57 170.817 57 143.5L160 143.5L160 246.5Z" fill="#B8914F"/>
<path d="M160 40.5C178.08 40.5 195.842 45.2592 211.5 54.2994L160 143.5L160 40.5Z" fill="#003995"/>
<path d="M211.5 54.2994C227.158 63.3395 240.16 76.342 249.201 92L160 143.5L211.5 54.2994Z" fill="#B8914F"/>
<path d="M249.201 92C258.241 107.658 263 125.42 263 143.5L160 143.5L249.201 92Z" fill="#003995"/>
<path d="M263 143.5C263 161.58 258.241 179.342 249.201 195L160 143.5H263Z" fill="#B8914F"/>
<path d="M249.201 195C240.16 210.658 227.158 223.66 211.5 232.701L160 143.5L249.201 195Z" fill="#003995"/>
<path d="M211.5 232.701C195.842 241.741 178.08 246.5 160 246.5L160 143.5L211.5 232.701Z" fill="#B8914F"/>
<path d="M132.375 116.403C132.375 115.789 132.443 115.022 132.58 114.1C132.75 113.179 133.074 111.712 133.552 109.7C134.03 107.755 134.337 106.357 134.473 105.504C134.61 104.651 134.678 103.934 134.678 103.354C134.678 102.502 134.524 101.853 134.217 101.41C133.91 100.966 133.45 100.745 132.836 100.745C132.017 100.745 131.249 101.171 130.533 102.024C129.851 102.843 129.288 103.986 128.844 105.452L125.365 121.878H117.996L123.42 96.2928H130.789L130.226 98.9537C131.079 97.9985 132 97.2821 132.989 96.8045C133.978 96.3269 135.053 96.0881 136.213 96.0881C138.021 96.0881 139.42 96.5828 140.409 97.5721C141.398 98.5614 141.893 99.9942 141.893 101.87C141.893 102.655 141.791 103.593 141.586 104.685C141.415 105.742 141.057 107.38 140.511 109.597C140.068 111.337 139.778 112.565 139.641 113.282C139.505 113.998 139.437 114.595 139.437 115.073C139.437 115.789 139.607 116.335 139.948 116.71C140.29 117.051 140.801 117.222 141.484 117.222C142.336 117.222 143.07 116.932 143.684 116.352C144.298 115.772 144.997 114.561 145.782 112.719H147.931C146.84 115.891 145.509 118.262 143.94 119.832C142.405 121.401 140.563 122.185 138.413 122.185C136.503 122.185 135.019 121.674 133.961 120.65C132.904 119.593 132.375 118.177 132.375 116.403Z" fill="#B8914F"/>
<path d="M119.338 89.4871C119.338 90.6129 118.928 91.5681 118.11 92.3527C117.325 93.1373 116.37 93.5296 115.244 93.5296C114.118 93.5296 113.163 93.1373 112.379 92.3527C111.594 91.5681 111.202 90.6129 111.202 89.4871C111.202 88.3613 111.594 87.4061 112.379 86.6215C113.163 85.8028 114.118 85.3934 115.244 85.3934C116.37 85.3934 117.325 85.8028 118.11 86.6215C118.928 87.4061 119.338 88.3613 119.338 89.4871ZM106.289 116.045C106.289 115.601 106.323 115.107 106.391 114.561C106.46 113.981 106.562 113.367 106.698 112.719L110.178 96.2929H117.547L113.862 113.691C113.794 113.998 113.743 114.288 113.709 114.561C113.675 114.8 113.658 115.056 113.658 115.329C113.658 116.011 113.811 116.506 114.118 116.813C114.459 117.085 115.005 117.222 115.756 117.222C116.711 117.222 117.615 116.813 118.468 115.994C119.321 115.141 119.952 114.049 120.361 112.719H122.51C121.419 115.823 119.952 118.177 118.11 119.78C116.268 121.384 114.152 122.186 111.764 122.186C110.059 122.186 108.711 121.657 107.722 120.599C106.767 119.508 106.289 117.989 106.289 116.045Z" fill="#B8914F"/>
<path d="M89.1114 116.557C89.2478 116.932 89.4867 117.222 89.8278 117.427C90.1689 117.631 90.5783 117.734 91.0559 117.734C93.2051 117.734 94.9279 116.352 96.2242 113.589C97.5547 110.825 98.2199 107.619 98.2199 103.969C98.2199 102.57 98.0152 101.512 97.6058 100.796C97.1965 100.08 96.5483 99.7213 95.6613 99.7213C95.0473 99.7213 94.4161 99.9601 93.768 100.438C93.1198 100.881 92.574 101.478 92.1305 102.229L89.1114 116.557ZM85.6317 132.829L77.9049 134.671L86.4505 94.3995H93.8192L93.0004 98.2373C93.8533 97.5209 94.7743 96.9751 95.7637 96.5999C96.753 96.2246 97.8276 96.037 98.9874 96.037C101.034 96.037 102.586 96.7193 103.644 98.0838C104.702 99.4484 105.23 101.461 105.23 104.122C105.23 109.342 104.105 113.657 101.853 117.068C99.6356 120.48 96.5653 122.186 92.6422 122.186C91.5506 122.186 90.6295 122.032 89.879 121.725C89.1626 121.418 88.6338 120.957 88.2927 120.343L85.6317 132.829Z" fill="#B8914F"/>
<path d="M61.1559 92.6597C61.1559 90.0329 62.2817 87.8496 64.5332 86.1098C66.8189 84.3699 69.6333 83.5 72.9765 83.5C75.5692 83.5 77.5819 84.0288 79.0147 85.0863C80.4816 86.1439 81.2151 87.662 81.2151 89.6406C81.2151 91.1757 80.8228 92.4209 80.0381 93.3761C79.2876 94.3313 78.2813 94.8089 77.019 94.8089C76.5414 94.8089 76.0979 94.7236 75.6886 94.553C75.3133 94.3825 74.9722 94.1095 74.6651 93.7343C75.3474 93.3249 75.8933 92.7109 76.3026 91.8921C76.7461 91.0734 76.9679 90.2205 76.9679 89.3336C76.9679 88.2419 76.6438 87.4061 75.9956 86.8262C75.3474 86.2121 74.4093 85.9051 73.1812 85.9051C71.7143 85.9051 70.5544 86.3145 69.7015 87.1332C68.8828 87.9519 68.4734 89.0948 68.4734 90.5617C68.4734 91.7557 68.7805 92.8985 69.3945 93.9901C70.0086 95.0477 71.339 96.4805 73.3859 98.2885C76.0809 100.642 77.8548 102.689 78.7077 104.429C79.5605 106.135 79.987 108.045 79.987 110.16C79.987 114.049 78.6395 117.154 75.9444 119.473C73.2494 121.793 69.8039 122.953 65.6078 122.953C62.2646 122.953 59.6208 122.186 57.6763 120.65C55.7318 119.115 54.7595 116.949 54.7595 114.152C54.7595 111.695 55.493 109.683 56.9599 108.113C58.4268 106.544 60.2007 105.76 62.2817 105.76C63.578 105.76 64.6356 106.067 65.4543 106.681C66.2731 107.261 66.7165 108.079 66.7848 109.137C65.0108 109.137 63.561 109.563 62.4352 110.416C61.3436 111.269 60.7977 112.446 60.7977 113.947C60.7977 115.38 61.2412 116.557 62.1282 117.478C63.0152 118.399 64.2092 118.859 65.7102 118.859C67.4841 118.859 68.9169 118.245 70.0086 117.017C71.1002 115.789 71.646 114.135 71.646 112.054C71.646 110.45 71.2878 108.915 70.5714 107.448C69.855 105.981 68.3711 104.02 66.1195 101.563C64.0727 99.3802 62.7252 97.6745 62.077 96.4464C61.463 95.1841 61.1559 93.9219 61.1559 92.6597Z" fill="#B8914F"/>
<path d="M126.807 141.144C126.807 142.579 126.22 143.832 125.044 144.904C123.869 145.958 122.469 146.529 120.844 146.615C120.827 146.909 120.809 147.134 120.792 147.289C120.792 147.428 120.792 147.549 120.792 147.652C120.792 148.448 120.922 149.009 121.181 149.338C121.457 149.666 121.95 149.83 122.659 149.83C123.471 149.83 124.215 149.649 124.889 149.286C125.58 148.906 126.367 148.214 127.248 147.212H128.13C127.127 148.837 126.038 150.047 124.863 150.842C123.687 151.62 122.4 152.008 120.999 152.008C119.668 152.008 118.657 151.663 117.966 150.971C117.292 150.28 116.955 149.251 116.955 147.886C116.955 146.901 117.11 145.855 117.421 144.748C117.732 143.642 118.147 142.657 118.666 141.793C119.305 140.756 120.066 139.978 120.948 139.459C121.846 138.923 122.849 138.655 123.955 138.655C124.906 138.655 125.615 138.863 126.081 139.278C126.565 139.675 126.807 140.297 126.807 141.144ZM124.163 140.03C123.575 140.03 122.979 140.557 122.374 141.611C121.786 142.648 121.345 143.901 121.051 145.371C122.054 145.302 122.927 144.844 123.67 143.997C124.431 143.132 124.811 142.164 124.811 141.093C124.811 140.73 124.759 140.462 124.655 140.289C124.552 140.116 124.387 140.03 124.163 140.03Z" fill="white"/>
<path d="M110.628 148.967C110.628 148.644 110.663 148.241 110.732 147.756C110.818 147.272 110.983 146.5 111.225 145.442C111.467 144.419 111.622 143.684 111.691 143.235C111.76 142.787 111.795 142.41 111.795 142.105C111.795 141.656 111.709 141.315 111.536 141.082C111.38 140.849 111.147 140.732 110.836 140.732C110.421 140.732 110.015 140.992 109.617 141.513C109.237 142.015 108.986 142.544 108.865 143.101L107.076 151.847H103.342L107.102 133.547L109.021 133.278L110.5 132.5L109.539 139.79C109.971 139.288 110.438 138.911 110.939 138.66C111.441 138.409 111.985 138.283 112.573 138.283C113.489 138.283 114.198 138.543 114.699 139.064C115.2 139.584 115.451 140.338 115.451 141.324C115.451 141.737 115.399 142.23 115.295 142.804C115.209 143.361 115.027 144.222 114.751 145.388C114.526 146.303 114.379 146.949 114.31 147.326C114.241 147.703 114.206 148.016 114.206 148.268C114.206 148.644 114.293 148.931 114.466 149.129C114.638 149.308 114.898 149.398 115.243 149.398C115.676 149.398 116.047 149.245 116.358 148.94C116.669 148.635 117.024 147.999 117.421 147.03H118.51C117.957 148.698 117.283 149.945 116.488 150.77C115.71 151.596 114.777 152.008 113.688 152.008C112.72 152.008 111.968 151.739 111.432 151.201C110.896 150.645 110.628 149.9 110.628 148.967Z" fill="white"/>
<path d="M107.479 133.029C107.998 133.029 108.525 132.986 109.061 132.899C109.597 132.796 110.072 132.657 110.487 132.484C110.47 133.591 110.184 134.42 109.631 134.974C109.095 135.509 108.3 135.777 107.246 135.777C106.745 135.777 106.183 135.734 105.561 135.648C104.956 135.561 104.178 135.414 103.227 135.207L99.6489 151.853H95.9152L99.597 134.688H99.2859C97.6092 134.688 96.3733 135.12 95.5781 135.985C94.8003 136.832 94.4113 138.145 94.4113 139.926C94.4113 140.254 94.4286 140.539 94.4632 140.781C94.5151 141.023 94.5928 141.257 94.6965 141.482C94.7311 141.551 94.7484 141.603 94.7484 141.637C94.7657 141.654 94.7743 141.672 94.7743 141.689C93.8063 141.689 93.0976 141.49 92.6482 141.093C92.2161 140.678 92 140.038 92 139.174C92 137.117 92.7692 135.483 94.3076 134.273C95.8633 133.046 98.0413 132.433 100.842 132.433C101.412 132.433 101.956 132.458 102.475 132.51C103.011 132.545 103.694 132.623 104.523 132.744C105.249 132.865 105.811 132.942 106.209 132.977C106.624 133.012 107.047 133.029 107.479 133.029Z" fill="white"/>
<path d="M137.32 179.265C137.32 178.822 137.354 178.327 137.422 177.781C137.491 177.201 137.593 176.587 137.729 175.939L143.205 150.302L150.778 149.279L144.893 176.911C144.825 177.218 144.774 177.508 144.74 177.781C144.706 178.02 144.689 178.276 144.689 178.549C144.689 179.231 144.842 179.726 145.149 180.033C145.49 180.306 146.036 180.442 146.787 180.442C147.742 180.442 148.646 180.033 149.499 179.214C150.352 178.361 150.983 177.269 151.392 175.939H153.541C152.45 179.043 150.983 181.397 149.141 183.001C147.298 184.604 145.183 185.406 142.795 185.406C141.09 185.406 139.742 184.877 138.753 183.819C137.798 182.728 137.32 181.21 137.32 179.265Z" fill="#003995"/>
<path d="M136.92 163.965C136.92 166.796 135.76 169.27 133.44 171.385C131.12 173.466 128.357 174.591 125.15 174.762C125.116 175.342 125.082 175.785 125.048 176.093C125.048 176.365 125.048 176.604 125.048 176.809C125.048 178.378 125.304 179.487 125.816 180.135C126.361 180.783 127.334 181.107 128.732 181.107C130.336 181.107 131.803 180.749 133.133 180.033C134.498 179.282 136.05 177.918 137.79 175.939H139.53C137.551 179.146 135.402 181.534 133.082 183.103C130.762 184.638 128.221 185.406 125.457 185.406C122.831 185.406 120.835 184.723 119.47 183.359C118.14 181.994 117.475 179.964 117.475 177.269C117.475 175.325 117.782 173.261 118.396 171.078C119.01 168.894 119.829 166.95 120.852 165.244C122.114 163.197 123.615 161.662 125.355 160.639C127.129 159.581 129.108 159.052 131.291 159.052C133.167 159.052 134.566 159.462 135.487 160.281C136.442 161.065 136.92 162.293 136.92 163.965ZM131.7 161.765C130.54 161.765 129.363 162.805 128.169 164.886C127.01 166.933 126.14 169.406 125.56 172.306C127.538 172.169 129.261 171.265 130.728 169.594C132.229 167.888 132.98 165.978 132.98 163.863C132.98 163.146 132.877 162.617 132.673 162.276C132.468 161.935 132.144 161.765 131.7 161.765Z" fill="#003995"/>
<path d="M117.281 163.965C117.281 166.796 116.121 169.27 113.801 171.385C111.481 173.466 108.718 174.591 105.512 174.762C105.477 175.342 105.443 175.785 105.409 176.093C105.409 176.365 105.409 176.604 105.409 176.809C105.409 178.378 105.665 179.487 106.177 180.135C106.723 180.783 107.695 181.107 109.093 181.107C110.697 181.107 112.164 180.749 113.494 180.033C114.859 179.282 116.411 177.918 118.151 175.939H119.891C117.912 179.146 115.763 181.534 113.443 183.103C111.123 184.638 108.582 185.406 105.819 185.406C103.192 185.406 101.196 184.723 99.8315 183.359C98.501 181.994 97.8358 179.964 97.8358 177.269C97.8358 175.325 98.1428 173.261 98.7569 171.078C99.3709 168.894 100.19 166.95 101.213 165.244C102.475 163.197 103.976 161.662 105.716 160.639C107.49 159.581 109.469 159.052 111.652 159.052C113.528 159.052 114.927 159.462 115.848 160.281C116.803 161.065 117.281 162.293 117.281 163.965ZM112.061 161.765C110.902 161.765 109.725 162.805 108.531 164.886C107.371 166.933 106.501 169.406 105.921 172.306C107.899 172.169 109.622 171.265 111.089 169.594C112.59 167.888 113.341 165.978 113.341 163.863C113.341 163.146 113.238 162.617 113.034 162.276C112.829 161.935 112.505 161.765 112.061 161.765Z" fill="#003995"/>
<path d="M85.35 179.623C85.35 179.009 85.4182 178.242 85.5547 177.321C85.7252 176.4 86.0493 174.933 86.5269 172.92C87.0045 170.975 87.3116 169.577 87.448 168.724C87.5845 167.871 87.6527 167.155 87.6527 166.575C87.6527 165.722 87.4821 165.074 87.141 164.63C86.834 164.187 86.3734 163.965 85.7594 163.965C84.9406 163.965 84.1389 164.46 83.3543 165.449C82.6038 166.404 82.1091 167.41 81.8703 168.468L78.3395 185.099H70.9709L78.3907 150.302L85.964 149.279L83.2008 162.174C84.0536 161.219 84.9747 160.502 85.964 160.025C86.9534 159.547 88.028 159.308 89.1878 159.308C90.9959 159.308 92.3946 159.803 93.3839 160.792C94.3732 161.782 94.8679 163.214 94.8679 165.091C94.8679 165.875 94.7655 166.813 94.5608 167.905C94.3903 168.963 94.032 170.6 93.4862 172.818C93.0427 174.557 92.7528 175.786 92.6163 176.502C92.4799 177.218 92.4116 177.815 92.4116 178.293C92.4116 179.009 92.5822 179.555 92.9233 179.93C93.2645 180.272 93.7762 180.442 94.4585 180.442C95.3113 180.442 96.0448 180.152 96.6588 179.572C97.2729 178.992 97.9722 177.781 98.7569 175.939H100.906C99.8144 179.112 98.4839 181.483 96.9147 183.052C95.3796 184.621 93.5374 185.406 91.3882 185.406C89.4778 185.406 87.9938 184.894 86.9363 183.871C85.8788 182.813 85.35 181.397 85.35 179.623Z" fill="#003995"/>
<path d="M30.4988 150.302C32.2386 149.176 34.0978 148.307 36.0764 147.692C38.0892 147.044 40.0507 146.72 41.9611 146.72C42.1999 146.72 42.4558 146.737 42.7287 146.771C43.0357 146.771 43.4621 146.788 44.008 146.823L44.4685 178.293L55.2145 146.976H61.9179V178.293L72.9197 146.976H76.5017L62.2761 185.099H54.7028V159.052L44.5709 185.099H37.0487V150.149C34.3195 151.002 32.2556 152.383 30.857 154.294C29.4583 156.204 28.7589 158.609 28.7589 161.509C28.7589 162.157 28.793 162.72 28.8613 163.197C28.9636 163.675 29.1171 164.136 29.3218 164.579C29.39 164.715 29.4242 164.818 29.4242 164.886C29.4583 164.92 29.4753 164.954 29.4753 164.988C27.5649 164.988 26.1663 164.596 25.2793 163.811C24.4264 162.993 24 161.73 24 160.025C24 158.319 24.5629 156.613 25.6887 154.908C26.8485 153.202 28.4519 151.667 30.4988 150.302Z" fill="#003995"/>
</svg>
